<svg width="300" height="300" viewBox="0 0 300 300" fill="none" xmlns="http://www.w3.org/2000/svg">
<path d="M147.402 66.5C148.557 64.5 151.443 64.5 152.598 66.5L199.363 147.5C200.518 149.5 199.075 152 196.765 152H103.235C100.925 152 99.4819 149.5 100.637 147.5L147.402 66.5Z" fill="#FFDF58"/>
<path d="M59.5 139.098C57.5 137.943 57.5 135.057 59.5 133.902L133.75 91.0337C135.75 89.879 138.25 91.3223 138.25 93.6317L138.25 179.368C138.25 181.678 135.75 183.121 133.75 181.966L59.5 139.098Z" fill="#0049AF"/>
<path d="M241.5 133.902C243.5 135.057 243.5 137.943 241.5 139.098L167.25 181.966C165.25 183.121 162.75 181.678 162.75 179.368L162.75 93.6317C162.75 91.3223 165.25 89.879 167.25 91.0337L241.5 133.902Z" fill="#FF0E0E"/>
<path d="M236.424 115.393C238.444 116.544 238.444 119.456 236.424 120.607L189.235 147.488C187.235 148.627 184.75 147.183 184.75 144.881L184.75 91.1186C184.75 88.8169 187.235 87.3726 189.235 88.5119L236.424 115.393Z" fill="#FF9737"/>
<path d="M106.576 152.607C104.556 151.456 104.556 148.544 106.576 147.393L153.765 120.512C155.765 119.373 158.25 120.817 158.25 123.119L158.25 176.881C158.25 179.183 155.765 180.627 153.765 179.488L106.576 152.607Z" fill="#008134"/>
</svg>
